<svg width="28" height="28" viewBox="0 0 28 28" fill="none" xmlns="http://www.w3.org/2000/svg">
<g clip-path="url(#clip0_24_261)">
<path d="M22.7501 11.6667C21.7573 11.6692 20.7776 11.4408 19.8884 10.9995C18.9991 10.5581 18.2247 9.91599 17.6264 9.12381C17.0281 8.33163 16.6222 7.41113 16.441 6.43508C16.2597 5.45903 16.3079 4.45419 16.5819 3.5H2.91675C2.45262 3.5 2.0075 3.68437 1.67931 4.01256C1.35112 4.34075 1.16675 4.78587 1.16675 5.25V25.0833C1.16675 25.5475 1.35112 25.9926 1.67931 26.3208C2.0075 26.649 2.45262 26.8333 2.91675 26.8333H22.7501C23.2142 26.8333 23.6593 26.649 23.9875 26.3208C24.3157 25.9926 24.5001 25.5475 24.5001 25.0833V11.4182C23.9311 11.5816 23.3421 11.6652 22.7501 11.6667ZM23.3334 25.0833C23.3334 25.238 23.272 25.3864 23.1626 25.4958C23.0532 25.6052 22.9048 25.6667 22.7501 25.6667H2.91675C2.76204 25.6667 2.61367 25.6052 2.50427 25.4958C2.39487 25.3864 2.33341 25.238 2.33341 25.0833V21.5833C2.33341 21.4286 2.39487 21.2802 2.50427 21.1709C2.61367 21.0615 2.76204 21 2.91675 21H22.7501C22.9048 21 23.0532 21.0615 23.1626 21.1709C23.272 21.2802 23.3334 21.4286 23.3334 21.5833V25.0833Z" fill="#C4C4C4"/>
<path d="M22.75 0C21.7117 0 20.6966 0.307907 19.8333 0.884785C18.9699 1.46166 18.297 2.2816 17.8996 3.24091C17.5023 4.20022 17.3983 5.25582 17.6009 6.27422C17.8035 7.29262 18.3035 8.22809 19.0377 8.96231C19.7719 9.69654 20.7074 10.1966 21.7258 10.3991C22.7442 10.6017 23.7998 10.4977 24.7591 10.1004C25.7184 9.70301 26.5383 9.0301 27.1152 8.16674C27.6921 7.30339 28 6.28835 28 5.25C28 3.85761 27.4469 2.52226 26.4623 1.53769C25.4777 0.553124 24.1424 0 22.75 0V0ZM25.0833 5.83333H23.3333V7.58333C23.3333 7.73804 23.2719 7.88642 23.1625 7.99581C23.0531 8.10521 22.9047 8.16667 22.75 8.16667C22.5953 8.16667 22.4469 8.10521 22.3375 7.99581C22.2281 7.88642 22.1667 7.73804 22.1667 7.58333V5.83333H20.4167C20.262 5.83333 20.1136 5.77188 20.0042 5.66248C19.8948 5.55308 19.8333 5.40471 19.8333 5.25C19.8333 5.09529 19.8948 4.94692 20.0042 4.83752C20.1136 4.72813 20.262 4.66667 20.4167 4.66667H22.1667V2.91667C22.1667 2.76196 22.2281 2.61358 22.3375 2.50419C22.4469 2.39479 22.5953 2.33333 22.75 2.33333C22.9047 2.33333 23.0531 2.39479 23.1625 2.50419C23.2719 2.61358 23.3333 2.76196 23.3333 2.91667V4.66667H25.0833C25.238 4.66667 25.3864 4.72813 25.4958 4.83752C25.6052 4.94692 25.6667 5.09529 25.6667 5.25C25.6667 5.40471 25.6052 5.55308 25.4958 5.66248C25.3864 5.77188 25.238 5.83333 25.0833 5.83333Z" fill="#C4C4C4"/>
</g>
<defs>
<clipPath id="clip0_24_261">
<rect width="28" height="28" fill="white"/>
</clipPath>
</defs>
</svg>
