<svg width="28" height="28" viewBox="0 0 28 28" fill="none" xmlns="http://www.w3.org/2000/svg">
<path d="M25.6666 8.14333V18.6667C25.6666 19.95 24.6166 21 23.3333 21H6.99992L2.33325 25.6667V4.66667C2.33325 3.38333 3.38325 2.33333 4.66659 2.33333H16.4499C16.2773 3.18091 16.2953 4.05625 16.5026 4.89602C16.7099 5.73579 17.1012 6.51898 17.6483 7.18893C18.1955 7.85887 18.8847 8.39882 19.6661 8.76969C20.4475 9.14056 21.3016 9.33309 22.1666 9.33333C23.4849 9.33333 24.6866 8.87833 25.6666 8.14333ZM18.6666 3.5C18.6666 5.43667 20.2299 7 22.1666 7C24.1033 7 25.6666 5.43667 25.6666 3.5C25.6666 1.56333 24.1033 0 22.1666 0C20.2299 0 18.6666 1.56333 18.6666 3.5Z" fill="#C4C4C4"/>
</svg>
