<svg width="28" height="28" viewBox="0 0 28 28" fill="none" xmlns="http://www.w3.org/2000/svg">
<g clip-path="url(#clip0_24_251)">
<path d="M14 28C10.2977 28.0975 6.61155 27.4777 3.14475 26.1747C2.99003 26.106 2.85858 25.9939 2.76633 25.8519C2.67407 25.71 2.62498 25.5443 2.625 25.375C2.62755 23.0551 3.55024 20.831 5.19063 19.1906C6.83102 17.5502 9.05514 16.6275 11.375 16.625H16.625C18.9449 16.6275 21.169 17.5502 22.8094 19.1906C24.4498 20.831 25.3725 23.0551 25.375 25.375C25.375 25.5443 25.3259 25.71 25.2337 25.8519C25.1414 25.9939 25.01 26.106 24.8552 26.1747C21.3885 27.4777 17.7023 28.0975 14 28Z" fill="#C4C4C4"/>
<path d="M14 14.875C9.99338 14.875 7 10.7179 7 7C7 5.14348 7.7375 3.36301 9.05025 2.05025C10.363 0.737498 12.1435 0 14 0C15.8565 0 17.637 0.737498 18.9497 2.05025C20.2625 3.36301 21 5.14348 21 7C21 10.7179 18.0066 14.875 14 14.875Z" fill="#C4C4C4"/>
</g>
<defs>
<clipPath id="clip0_24_251">
<rect width="28" height="28" fill="white"/>
</clipPath>
</defs>
</svg>
