<svg width="28" height="28" viewBox="0 0 28 28" fill="none" xmlns="http://www.w3.org/2000/svg">
<path d="M23.0416 18.9583C23.0416 19.0283 23.0299 19.11 23.0183 19.1917L22.1433 25.34C22.0149 26.1917 21.3383 26.8333 20.4633 26.8333H12.5416C12.0633 26.8333 11.6199 26.635 11.3049 26.32L5.54159 20.5567L6.46325 19.6233C6.69659 19.39 7.02325 19.2383 7.38492 19.2383C7.48992 19.2383 7.57159 19.2617 7.66492 19.2733L11.6666 20.1133V7.58332C11.6666 6.61499 12.4483 5.83332 13.4166 5.83332C14.3849 5.83332 15.1666 6.61499 15.1666 7.58332V14.5833H16.0533C16.2749 14.5833 16.4849 14.63 16.6833 14.7117L21.9799 17.3483C22.5983 17.605 23.0416 18.235 23.0416 18.9583ZM23.4849 4.51499C21.8049 2.53166 18.1999 1.16666 13.9999 1.16666C9.79992 1.16666 6.19492 2.53166 4.51492 4.51499L2.33325 2.33332V8.16666H8.16659L5.75159 5.75166C6.91825 4.24666 10.0683 2.91666 13.9999 2.91666C17.9316 2.91666 21.0816 4.24666 22.2483 5.75166L19.8333 8.16666H25.6666V2.33332L23.4849 4.51499Z" fill="#C4C4C4"/>
</svg>
